<mxfile host="app.diagrams.net" modified="2024-05-17T16:31:04.047Z" agent="Mozilla/5.0 (Windows NT 10.0; Win64; x64) AppleWebKit/537.36 (KHTML, like Gecko) Chrome/120.0.0.0 Safari/537.36 Edg/120.0.0.0" etag="92K-O35V3ky3Y9cV9lc6" version="24.4.0" type="device">
  <diagram id="R2lEEEUBdFMjLlhIrx00" name="Page-1">
    <mxGraphModel dx="1510" dy="858" grid="0" gridSize="10" guides="1" tooltips="1" connect="1" arrows="1" fold="1" page="1" pageScale="1" pageWidth="850" pageHeight="1100" background="#000000" math="0" shadow="0" extFonts="Permanent Marker^https://fonts.googleapis.com/css?family=Permanent+Marker">
      <root>
        <mxCell id="0" />
        <mxCell id="1" parent="0" />
        <mxCell id="exWkpmdWYC31YrSvvnum-5" value="&lt;div style=&quot;font-size: 14px; line-height: 170%;&quot;&gt;&lt;font style=&quot;font-size: 14px;&quot;&gt;&lt;u style=&quot;&quot;&gt;comment_id&lt;/u&gt;&lt;/font&gt;&lt;/div&gt;&lt;div style=&quot;font-size: 14px; line-height: 170%;&quot;&gt;&lt;font style=&quot;font-size: 14px;&quot;&gt;date&lt;/font&gt;&lt;/div&gt;&lt;div style=&quot;font-size: 14px; line-height: 170%;&quot;&gt;&lt;font style=&quot;font-size: 14px;&quot;&gt;content&lt;/font&gt;&lt;/div&gt;" style="rounded=0;whiteSpace=wrap;html=1;align=left;labelBackgroundColor=none;strokeColor=#FFFFFF;fontColor=#ffffff;fillColor=#000000;" vertex="1" parent="1">
          <mxGeometry x="320" y="120" width="120" height="70" as="geometry" />
        </mxCell>
        <mxCell id="exWkpmdWYC31YrSvvnum-6" value="item_comments" style="rounded=0;whiteSpace=wrap;html=1;labelBackgroundColor=none;strokeColor=#FFFFFF;fontColor=#ffffff;fillColor=#000000;" vertex="1" parent="1">
          <mxGeometry x="320" y="90" width="120" height="30" as="geometry" />
        </mxCell>
        <mxCell id="exWkpmdWYC31YrSvvnum-7" value="&lt;div style=&quot;font-size: 14px; line-height: 170%;&quot;&gt;&lt;font style=&quot;font-size: 14px;&quot;&gt;&lt;u style=&quot;&quot;&gt;user_id&lt;/u&gt;&lt;/font&gt;&lt;/div&gt;" style="rounded=0;whiteSpace=wrap;html=1;align=left;labelBackgroundColor=none;strokeColor=#FFFFFF;fontColor=#ffffff;fillColor=#000000;" vertex="1" parent="1">
          <mxGeometry x="20" y="140" width="120" height="30" as="geometry" />
        </mxCell>
        <mxCell id="exWkpmdWYC31YrSvvnum-8" value="user" style="rounded=0;whiteSpace=wrap;html=1;labelBackgroundColor=none;strokeColor=#FFFFFF;fontColor=#ffffff;fillColor=#000000;" vertex="1" parent="1">
          <mxGeometry x="20" y="110" width="120" height="30" as="geometry" />
        </mxCell>
        <mxCell id="exWkpmdWYC31YrSvvnum-9" value="&lt;div style=&quot;font-size: 14px; line-height: 170%;&quot;&gt;&lt;font style=&quot;font-size: 14px;&quot;&gt;&lt;u style=&quot;&quot;&gt;item_id&lt;/u&gt;&lt;/font&gt;&lt;/div&gt;" style="rounded=0;whiteSpace=wrap;html=1;align=left;labelBackgroundColor=none;strokeColor=#FFFFFF;fillColor=#000000;fontColor=#ffffff;" vertex="1" parent="1">
          <mxGeometry x="670" y="100" width="120" height="30" as="geometry" />
        </mxCell>
        <mxCell id="exWkpmdWYC31YrSvvnum-10" value="lost_item(非本组)" style="rounded=0;whiteSpace=wrap;html=1;labelBackgroundColor=none;strokeColor=#FFFFFF;fillColor=#000000;fontColor=#ffffff;" vertex="1" parent="1">
          <mxGeometry x="670" y="70" width="120" height="30" as="geometry" />
        </mxCell>
        <mxCell id="exWkpmdWYC31YrSvvnum-11" value="&lt;div style=&quot;font-size: 14px; line-height: 170%;&quot;&gt;&lt;font style=&quot;font-size: 14px;&quot;&gt;&lt;u style=&quot;&quot;&gt;item_id&lt;/u&gt;&lt;/font&gt;&lt;/div&gt;" style="rounded=0;whiteSpace=wrap;html=1;align=left;labelBackgroundColor=none;strokeColor=#FFFFFF;fontColor=#ffffff;fillColor=#000000;" vertex="1" parent="1">
          <mxGeometry x="670" y="200" width="120" height="30" as="geometry" />
        </mxCell>
        <mxCell id="exWkpmdWYC31YrSvvnum-12" value="found_item(非本组)" style="rounded=0;whiteSpace=wrap;html=1;labelBackgroundColor=none;strokeColor=#FFFFFF;fontColor=#ffffff;fillColor=#000000;" vertex="1" parent="1">
          <mxGeometry x="670" y="170" width="120" height="30" as="geometry" />
        </mxCell>
        <mxCell id="exWkpmdWYC31YrSvvnum-13" value="make" style="rhombus;whiteSpace=wrap;html=1;labelBackgroundColor=none;strokeColor=#FFFFFF;fontColor=#ffffff;fillColor=#000000;" vertex="1" parent="1">
          <mxGeometry x="190" y="100" width="80" height="80" as="geometry" />
        </mxCell>
        <mxCell id="exWkpmdWYC31YrSvvnum-16" value="" style="endArrow=classic;html=1;rounded=0;exitX=0;exitY=0.5;exitDx=0;exitDy=0;entryX=1;entryY=1;entryDx=0;entryDy=0;labelBackgroundColor=none;strokeColor=#FFFFFF;fontColor=#ffffff;" edge="1" parent="1" source="exWkpmdWYC31YrSvvnum-13" target="exWkpmdWYC31YrSvvnum-8">
          <mxGeometry width="50" height="50" relative="1" as="geometry">
            <mxPoint x="150" y="150" as="sourcePoint" />
            <mxPoint x="200" y="100" as="targetPoint" />
          </mxGeometry>
        </mxCell>
        <mxCell id="exWkpmdWYC31YrSvvnum-17" value="lost_item_&lt;div&gt;comment&lt;/div&gt;" style="rhombus;whiteSpace=wrap;html=1;labelBackgroundColor=none;strokeColor=#FFFFFF;fillColor=#000000;fontColor=#ffffff;" vertex="1" parent="1">
          <mxGeometry x="510" y="60" width="90" height="80" as="geometry" />
        </mxCell>
        <mxCell id="exWkpmdWYC31YrSvvnum-19" value="" style="endArrow=classic;html=1;rounded=0;entryX=0;entryY=0.75;entryDx=0;entryDy=0;labelBackgroundColor=none;strokeColor=#FFFFFF;fontColor=#ffffff;" edge="1" parent="1">
          <mxGeometry width="50" height="50" relative="1" as="geometry">
            <mxPoint x="600" y="100" as="sourcePoint" />
            <mxPoint x="670.96" y="99.02" as="targetPoint" />
          </mxGeometry>
        </mxCell>
        <mxCell id="exWkpmdWYC31YrSvvnum-21" value="" style="shape=link;html=1;rounded=0;labelBackgroundColor=none;strokeColor=#FFFFFF;fontColor=#ffffff;" edge="1" parent="1">
          <mxGeometry width="100" relative="1" as="geometry">
            <mxPoint x="270" y="139" as="sourcePoint" />
            <mxPoint x="320" y="138.57" as="targetPoint" />
          </mxGeometry>
        </mxCell>
        <mxCell id="exWkpmdWYC31YrSvvnum-22" value="" style="shape=link;html=1;rounded=0;entryX=0;entryY=0.5;entryDx=0;entryDy=0;labelBackgroundColor=none;strokeColor=#FFFFFF;fontColor=#ffffff;" edge="1" parent="1" target="exWkpmdWYC31YrSvvnum-17">
          <mxGeometry width="100" relative="1" as="geometry">
            <mxPoint x="440" y="100.43" as="sourcePoint" />
            <mxPoint x="490" y="100" as="targetPoint" />
          </mxGeometry>
        </mxCell>
        <mxCell id="exWkpmdWYC31YrSvvnum-24" value="found_item_&lt;div&gt;comment&lt;/div&gt;" style="rhombus;whiteSpace=wrap;html=1;labelBackgroundColor=none;strokeColor=#FFFFFF;fontColor=#ffffff;fillColor=#000000;" vertex="1" parent="1">
          <mxGeometry x="510" y="145" width="90" height="80" as="geometry" />
        </mxCell>
        <mxCell id="exWkpmdWYC31YrSvvnum-25" value="" style="endArrow=classic;html=1;rounded=0;entryX=0;entryY=0.75;entryDx=0;entryDy=0;labelBackgroundColor=none;strokeColor=#FFFFFF;fontColor=#ffffff;" edge="1" parent="1">
          <mxGeometry width="50" height="50" relative="1" as="geometry">
            <mxPoint x="600" y="184" as="sourcePoint" />
            <mxPoint x="670.96" y="184.01999999999998" as="targetPoint" />
          </mxGeometry>
        </mxCell>
        <mxCell id="exWkpmdWYC31YrSvvnum-26" value="" style="shape=link;html=1;rounded=0;entryX=0;entryY=0.5;entryDx=0;entryDy=0;labelBackgroundColor=none;strokeColor=#FFFFFF;fontColor=#ffffff;" edge="1" parent="1" target="exWkpmdWYC31YrSvvnum-24">
          <mxGeometry width="100" relative="1" as="geometry">
            <mxPoint x="440" y="185.43" as="sourcePoint" />
            <mxPoint x="490" y="185" as="targetPoint" />
          </mxGeometry>
        </mxCell>
        <mxCell id="exWkpmdWYC31YrSvvnum-28" value="&lt;div style=&quot;font-size: 14px; line-height: 170%;&quot;&gt;&lt;font style=&quot;font-size: 14px;&quot;&gt;&lt;u style=&quot;&quot;&gt;activity_id&lt;/u&gt;&lt;/font&gt;&lt;/div&gt;&lt;div style=&quot;font-size: 14px; line-height: 170%;&quot;&gt;activity_type&lt;/div&gt;&lt;div style=&quot;font-size: 14px; line-height: 170%;&quot;&gt;&lt;font style=&quot;font-size: 14px;&quot;&gt;score&lt;/font&gt;&lt;/div&gt;&lt;div style=&quot;font-size: 14px; line-height: 170%;&quot;&gt;&lt;font style=&quot;font-size: 14px;&quot;&gt;date&lt;/font&gt;&lt;/div&gt;" style="rounded=0;whiteSpace=wrap;html=1;align=left;labelBackgroundColor=none;strokeColor=#FFFFFF;fontColor=#ffffff;fillColor=#000000;" vertex="1" parent="1">
          <mxGeometry x="300.04" y="270" width="120" height="90" as="geometry" />
        </mxCell>
        <mxCell id="exWkpmdWYC31YrSvvnum-29" value="&lt;span style=&quot;text-align: start;&quot;&gt;&lt;font style=&quot;font-size: 12px;&quot; face=&quot;Helvetica&quot;&gt;user_activity&lt;/font&gt;&lt;/span&gt;" style="rounded=0;whiteSpace=wrap;html=1;labelBackgroundColor=none;strokeColor=#FFFFFF;fontColor=#ffffff;fillColor=#000000;" vertex="1" parent="1">
          <mxGeometry x="300.04" y="240" width="120" height="30" as="geometry" />
        </mxCell>
        <mxCell id="exWkpmdWYC31YrSvvnum-32" value="action" style="rhombus;whiteSpace=wrap;html=1;labelBackgroundColor=none;strokeColor=#FFFFFF;fontColor=#ffffff;fillColor=#000000;" vertex="1" parent="1">
          <mxGeometry x="170.04" y="250" width="80" height="80" as="geometry" />
        </mxCell>
        <mxCell id="exWkpmdWYC31YrSvvnum-33" value="" style="endArrow=classic;html=1;rounded=0;exitX=0;exitY=0.5;exitDx=0;exitDy=0;entryX=0.333;entryY=1.067;entryDx=0;entryDy=0;entryPerimeter=0;labelBackgroundColor=none;strokeColor=#FFFFFF;fontColor=#ffffff;" edge="1" parent="1">
          <mxGeometry width="50" height="50" relative="1" as="geometry">
            <mxPoint x="170.04" y="287.99" as="sourcePoint" />
            <mxPoint x="120.00000000000003" y="170" as="targetPoint" />
            <Array as="points">
              <mxPoint x="120.03999999999999" y="287.99" />
            </Array>
          </mxGeometry>
        </mxCell>
        <mxCell id="exWkpmdWYC31YrSvvnum-34" value="" style="shape=link;html=1;rounded=0;labelBackgroundColor=none;strokeColor=#FFFFFF;fontColor=#ffffff;" edge="1" parent="1">
          <mxGeometry width="100" relative="1" as="geometry">
            <mxPoint x="250.04" y="289" as="sourcePoint" />
            <mxPoint x="300.04" y="288.57" as="targetPoint" />
          </mxGeometry>
        </mxCell>
        <mxCell id="exWkpmdWYC31YrSvvnum-38" value="&lt;div style=&quot;font-size: 14px; line-height: 170%;&quot;&gt;points&lt;/div&gt;&lt;div style=&quot;font-size: 14px; line-height: 170%;&quot;&gt;change_date&lt;/div&gt;" style="rounded=0;whiteSpace=wrap;html=1;align=left;labelBackgroundColor=none;strokeColor=#ffffff;fontColor=#ffffff;fillColor=#000000;" vertex="1" parent="1">
          <mxGeometry x="300.04" y="590" width="120" height="50" as="geometry" />
        </mxCell>
        <mxCell id="exWkpmdWYC31YrSvvnum-39" value="&lt;span style=&quot;text-align: start;&quot;&gt;&lt;font style=&quot;font-size: 12px;&quot; face=&quot;Helvetica&quot;&gt;user_points&lt;/font&gt;&lt;/span&gt;" style="rounded=0;whiteSpace=wrap;html=1;labelBackgroundColor=none;strokeColor=#ffffff;fontColor=#ffffff;fillColor=#000000;" vertex="1" parent="1">
          <mxGeometry x="300.04" y="560" width="120" height="30" as="geometry" />
        </mxCell>
        <mxCell id="exWkpmdWYC31YrSvvnum-40" value="score" style="rhombus;whiteSpace=wrap;html=1;labelBackgroundColor=none;strokeColor=#ffffff;fontColor=#ffffff;fillColor=#000000;" vertex="1" parent="1">
          <mxGeometry x="170.04" y="570" width="80" height="80" as="geometry" />
        </mxCell>
        <mxCell id="exWkpmdWYC31YrSvvnum-41" value="" style="endArrow=classic;html=1;rounded=0;entryX=0.154;entryY=1.017;entryDx=0;entryDy=0;entryPerimeter=0;labelBackgroundColor=none;strokeColor=#FFFFFF;fontColor=#ffffff;" edge="1" parent="1" target="exWkpmdWYC31YrSvvnum-7">
          <mxGeometry width="50" height="50" relative="1" as="geometry">
            <mxPoint x="170" y="608" as="sourcePoint" />
            <mxPoint x="40" y="250" as="targetPoint" />
            <Array as="points">
              <mxPoint x="40.03999999999999" y="607.99" />
            </Array>
          </mxGeometry>
        </mxCell>
        <mxCell id="exWkpmdWYC31YrSvvnum-43" value="" style="endArrow=classic;html=1;rounded=0;labelBackgroundColor=none;strokeColor=#ffffff;fontColor=#ffffff;" edge="1" parent="1">
          <mxGeometry width="50" height="50" relative="1" as="geometry">
            <mxPoint x="250.04" y="610" as="sourcePoint" />
            <mxPoint x="300" y="610" as="targetPoint" />
          </mxGeometry>
        </mxCell>
        <mxCell id="exWkpmdWYC31YrSvvnum-44" value="sum" style="rhombus;whiteSpace=wrap;html=1;labelBackgroundColor=none;strokeColor=#FFFFFF;fontColor=#ffffff;fillColor=#000000;" vertex="1" parent="1">
          <mxGeometry x="320" y="420" width="80" height="80" as="geometry" />
        </mxCell>
        <mxCell id="exWkpmdWYC31YrSvvnum-47" value="" style="endArrow=classic;html=1;rounded=0;exitX=0.5;exitY=1;exitDx=0;exitDy=0;entryX=0.5;entryY=0;entryDx=0;entryDy=0;labelBackgroundColor=none;strokeColor=#FFFFFF;fontColor=#ffffff;" edge="1" parent="1" source="exWkpmdWYC31YrSvvnum-44" target="exWkpmdWYC31YrSvvnum-39">
          <mxGeometry width="50" height="50" relative="1" as="geometry">
            <mxPoint x="370" y="460" as="sourcePoint" />
            <mxPoint x="420" y="410" as="targetPoint" />
          </mxGeometry>
        </mxCell>
        <mxCell id="exWkpmdWYC31YrSvvnum-48" value="" style="shape=link;html=1;rounded=0;exitX=0.5;exitY=1;exitDx=0;exitDy=0;labelBackgroundColor=none;strokeColor=#FFFFFF;fontColor=#ffffff;" edge="1" parent="1" source="exWkpmdWYC31YrSvvnum-28" target="exWkpmdWYC31YrSvvnum-44">
          <mxGeometry width="100" relative="1" as="geometry">
            <mxPoint x="130" y="460" as="sourcePoint" />
            <mxPoint x="230" y="460" as="targetPoint" />
          </mxGeometry>
        </mxCell>
      </root>
    </mxGraphModel>
  </diagram>
</mxfile>
